# xmcd CD database file
#
# Track frame offsets:
#	150
#	14593
#	25237
#	45039
#	62230
#	83590
#	103202
#	121512
#	141652
#	162564
#	182992
#	204206
#	220545
#	238929
#	257020
#	275586
#	291914
#	306241
#	318624
#	335597
#
# Disc length: 4735 seconds
#
# Revision: 0
# Processed by: cddbd v1.5.2PL0 Copyright (c) Steve Scherf et al.
# Submitted via: CDex 1.51
#
DISCID=2c127d14
DTITLE=Salsa  - SALSA Spirit CD1 Baila
DYEAR=2009
DGENRE=Salsa
TTITLE0=01 CHEO FELICIANO Oye Como 
TTITLE1=02 BENNY MORE Franeisco Guayabal 
TTITLE2=03 JOE ARROYO Y LA VERDAD La Noehe 
TTITLE3=04 ADALBERTO ALVAREZ Si No Fuera Por Las Mujeres 
TTITLE4=05 JESUS PAGAN Y SU ORQUESTRA Ritmo Sabroso 
TTITLE5=06 PUERTO RICAN POWER Me Tiene Loeo 
TTITLE6=07 LOS VAN VAN Esto Te Pone La Cabeza Mala 
TTITLE7=08 KEVIN CEBALLO Por Eso Te Ouiero 
TTITLE8=09 LUISITO CARRION Para Ser Real 
TTITLE9=10 MANOLITO SIMONET Loeos Por Mi Habana 
TTITLE10=11 SONORA CARRUSELES Mieaela 
TTITLE11=12 PUPY Y LOS QUE SON SON Si Me Ouieres Conoeer 
TTITLE12=13 CONJUNTO MASSALIA Partage 
TTITLE13=14 MOSQUITO SALSA CLUB La Polkita 
TTITLE14=15 MAMBOMANIA Serial Daneer 
TTITLE15=16 BATAZO Mas Sabrosa Oue Un Helado 
TTITLE16=17 RAUL PLANAS La Revoltosa 
TTITLE17=18 PAPA NOEL Tomatito 
TTITLE18=19 EDDIE PALMIERI and ISMAEL QUINTANA Puerto Rieo 
TTITLE19=20 PETE RODRIGUEZ I Like It Like That IAaron Jerome Remixl 
EXTD=YEAR: 2009
EXTT0=
EXTT1=
EXTT2=
EXTT3=
EXTT4=
EXTT5=
EXTT6=
EXTT7=
EXTT8=
EXTT9=
EXTT10=
EXTT11=
EXTT12=
EXTT13=
EXTT14=
EXTT15=
EXTT16=
EXTT17=
EXTT18=
EXTT19=
PLAYORDER=
